<svg height="512pt" viewBox="-52 0 512 512.001" width="512pt" xmlns="http://www.w3.org/2000/svg"><path d="m234.042969 0c-96.199219 0-174.394531 77.960938-174.394531 174.390625v25.921875c0 27.960938-11.105469 54.777344-30.878907 74.546875l-24.007812 24.011719c-10.167969 10.167968-2.96875 27.558594 11.414062 27.558594h34.53125c4.9375 0 8.941407 4.003906 8.941407 8.941406v29.625c0 44.269531 36.21875 80.488281 80.488281 80.488281 17.261719 0 31.300781 13.988281 31.300781 31.300781v25.710938c0 5.25 4.253906 9.503906 9.503906 9.503906h148.539063c5.328125 0 9.644531-4.316406 9.644531-9.640625v-65.945313c0-25.855468 8.617188-51.304687 25.722656-70.691406 27.125-30.734375 43.585938-71.097656 43.585938-115.3125v-76.015625c.003906-96.316406-78.078125-174.394531-174.390625-174.394531zm0 0" fill="#e4eaf8"/><path d="m207.496094 502.496094v-25.710938c0-17.3125-14.039063-31.300781-31.296875-31.300781-44.269531 0-80.492188-36.21875-80.492188-80.488281v-29.625c0-4.9375-4.003906-8.941406-8.941406-8.941406h-34.53125c-14.382813 0-21.582031-17.390626-11.414063-27.558594l24.007813-24.011719c19.773437-19.769531 30.878906-46.585937 30.878906-74.546875v-25.921875c0-90.328125 68.613281-164.449219 156.367188-173.46875-5.925781-.605469-11.941407-.921875-18.03125-.921875-96.199219 0-174.394531 77.960938-174.394531 174.390625v25.921875c0 27.960938-11.105469 54.777344-30.878907 74.546875l-24.007812 24.011719c-10.167969 10.167968-2.96875 27.558594 11.414062 27.558594h34.53125c4.9375 0 8.941407 4.003906 8.941407 8.941406v29.625c0 44.269531 36.222656 80.488281 80.492187 80.488281 17.257813 0 31.296875 13.988281 31.296875 31.300781v25.710938c0 5.25 4.257812 9.503906 9.503906 9.503906h36.058594c-5.25 0-9.503906-4.253906-9.503906-9.503906zm0 0" fill="#d8dce5"/><path d="m163.566406 176.890625h-56.554687c-4.265625 0-7.726563-3.457031-7.726563-7.726563 0-4.265624 3.460938-7.726562 7.726563-7.726562h56.554687c4.265625 0 7.726563 3.460938 7.726563 7.726562 0 4.269532-3.457031 7.726563-7.726563 7.726563zm0 0" fill="#6fd844"/><path d="m356.679688 176.890625h-56.089844c-4.265625 0-7.726563-3.457031-7.726563-7.726563 0-4.265624 3.457031-7.726562 7.726563-7.726562h56.089844c4.265624 0 7.726562 3.460938 7.726562 7.726562 0 4.269532-3.460938 7.726563-7.726562 7.726563zm0 0" fill="#f25c5c"/><path d="m231.847656 301.726562c-4.269531 0-7.730468-3.460937-7.730468-7.730468v-57.398438c0-4.269531 3.460937-7.730468 7.730468-7.730468 4.265625 0 7.726563 3.460937 7.726563 7.730468v57.398438c0 4.269531-3.460938 7.730468-7.726563 7.730468zm0 0" fill="#00c3ff"/><path d="m231.847656 107.644531c-4.269531 0-7.730468-3.457031-7.730468-7.726562v-55.585938c0-4.265625 3.460937-7.726562 7.730468-7.726562 4.265625 0 7.726563 3.460937 7.726563 7.726562v55.585938c0 4.269531-3.460938 7.726562-7.726563 7.726562zm0 0" fill="#ffc850"/><path d="m163.703125 136.824219 42.671875 27.886719c3.214844 2.101562 3.214844 6.808593 0 8.910156l-42.671875 27.882812c-3.539063 2.3125-8.230469-.226562-8.230469-4.453125v-55.769531c0-4.226562 4.691406-6.765625 8.230469-4.457031zm0 0" fill="#6fd844"/><path d="m184.191406 150.214844-20.488281-13.390625c-3.539063-2.3125-8.230469.230469-8.230469 4.457031v55.769531c0 4.226563 4.691406 6.765625 8.230469 4.453125l20.488281-13.386718zm0 0" fill="#5fbf32"/><path d="m299.988281 136.824219-42.671875 27.886719c-3.214844 2.101562-3.214844 6.808593 0 8.910156l42.671875 27.882812c3.539063 2.3125 8.234375-.226562 8.234375-4.453125v-55.769531c0-4.226562-4.695312-6.765625-8.234375-4.457031zm0 0" fill="#f25c5c"/><path d="m286.035156 173.621094c-3.214844-2.101563-3.214844-6.808594 0-8.910156l22.1875-14.496094v-8.933594c0-4.226562-4.695312-6.765625-8.234375-4.453125l-42.671875 27.882813c-3.214844 2.101562-3.214844 6.8125 0 8.910156l42.671875 27.886718c3.539063 2.3125 8.234375-.230468 8.234375-4.457031v-8.929687zm0 0" fill="#e54a4a"/><path d="m199.503906 237.308594 27.886719-42.671875c2.101563-3.214844 6.808594-3.214844 8.910156 0l27.882813 42.671875c2.3125 3.539062-.226563 8.230468-4.453125 8.230468h-55.769531c-4.226563 0-6.765626-4.691406-4.457032-8.230468zm0 0" fill="#00c3ff"/><path d="m228.226562 237.308594 17.976563-27.515625-9.902344-15.15625c-2.101562-3.214844-6.808593-3.214844-8.910156 0l-27.886719 42.671875c-2.3125 3.539062.230469 8.230468 4.457032 8.230468h28.71875c-4.226563 0-6.769532-4.691406-4.453126-8.230468zm0 0" fill="#00aaf0"/><path d="m199.503906 101.023438 27.886719 42.671874c2.101563 3.214844 6.808594 3.214844 8.910156 0l27.882813-42.671874c2.3125-3.539063-.226563-8.234376-4.453125-8.234376h-55.769531c-4.226563 0-6.765626 4.695313-4.457032 8.234376zm0 0" fill="#ffc850"/><path d="m228.226562 101.023438c-2.316406-3.539063.226563-8.234376 4.453126-8.234376h-28.71875c-4.226563 0-6.769532 4.695313-4.457032 8.234376l27.886719 42.671874c2.101563 3.214844 6.808594 3.214844 8.910156 0l9.902344-15.15625zm0 0" fill="#feb644"/></svg>