<?xml version="1.0" encoding="iso-8859-1"?>
<!-- Generator: Adobe Illustrator 19.0.0, SVG Export Plug-In . SVG Version: 6.00 Build 0)  -->
<svg version="1.1" id="Capa_1" xmlns="http://www.w3.org/2000/svg" xmlns:xlink="http://www.w3.org/1999/xlink" x="0px" y="0px"
	 viewBox="0 0 512 512" style="enable-background:new 0 0 512 512;" xml:space="preserve">
<g style="opacity:0.08;">
	<circle cx="256" cy="260.197" r="251.803"/>
</g>
<linearGradient id="SVGID_1_" gradientUnits="userSpaceOnUse" x1="-12.6621" y1="576.4395" x2="-12.6621" y2="636.4395" gradientTransform="matrix(8.3934 0 0 -8.3934 362.2788 5341.9175)">
	<stop  offset="0" style="stop-color:#FD2120"/>
	<stop  offset="1" style="stop-color:#F88635"/>
</linearGradient>
<circle style="fill:url(#SVGID_1_);" cx="256" cy="251.803" r="251.803"/>
<g style="opacity:0.16;">
	
		<linearGradient id="SVGID_2_" gradientUnits="userSpaceOnUse" x1="-12.6621" y1="576.4395" x2="-12.6621" y2="636.4395" gradientTransform="matrix(8.3934 0 0 -8.3934 362.2788 5341.9175)">
		<stop  offset="0" style="stop-color:#000000"/>
		<stop  offset="0.36" style="stop-color:#000000;stop-opacity:0"/>
	</linearGradient>
	<path style="fill:url(#SVGID_2_);" d="M256,0C116.929,0,4.197,112.732,4.197,251.803S116.929,503.607,256,503.607
		s251.803-112.732,251.803-251.803S395.071,0,256,0z M256,486.82c-129.796,0-235.016-105.22-235.016-235.016
		S126.204,16.787,256,16.787s235.016,105.22,235.016,235.016C490.874,381.541,385.737,486.677,256,486.82z"/>
</g>
<g style="opacity:0.16;">
	<path d="M256,0C116.929,0,4.197,112.732,4.197,251.803S116.929,503.607,256,503.607s251.803-112.732,251.803-251.803
		S395.071,0,256,0z M256,495.213c-134.429,0-243.41-108.98-243.41-243.41S121.571,8.393,256,8.393s243.41,108.98,243.41,243.41
		S390.429,495.213,256,495.213z"/>
</g>
<linearGradient id="SVGID_3_" gradientUnits="userSpaceOnUse" x1="-13.6618" y1="592.3107" x2="-13.6618" y2="624.5704" gradientTransform="matrix(8.3934 0 0 -8.3934 362.2788 5341.9175)">
	<stop  offset="0" style="stop-color:#F6E6E2"/>
	<stop  offset="1" style="stop-color:#FFFFFF"/>
</linearGradient>
<path style="fill:url(#SVGID_3_);" d="M324.44,351.668c-35.597,20.564-84.53,22.671-133.766,1.57
	c-38.803-16.737-71.621-44.821-94.149-80.577c10.634,8.536,22.318,15.662,34.774,21.202c50.847,23.829,101.687,22.201,137.459,0.059
	l-0.05-0.059c-50.889-39.021-94.149-89.911-126.38-131.466c-6.396-7.059-12.078-14.73-16.963-22.906
	c38.476,34.287,79.595,65.486,122.989,93.301c-31.576-33.926-60.492-70.22-86.511-108.569
	c43.167,44.007,90.943,83.255,142.504,117.055c2.275,1.284,4.029,2.35,5.439,3.299c1.511-3.853,2.812-7.789,3.886-11.784
	c11.877-43.26-1.695-92.454-31.383-133.17c68.7,41.564,109.417,119.59,92.445,184.908c-0.445,1.763-0.923,3.5-1.444,5.212
	c0.201,0.235,0.395,0.478,0.596,0.73c33.926,42.412,24.593,87.359,20.354,78.882C375.833,333.346,341.764,344.358,324.44,351.668
	L324.44,351.668z"/>
<g>
</g>
<g>
</g>
<g>
</g>
<g>
</g>
<g>
</g>
<g>
</g>
<g>
</g>
<g>
</g>
<g>
</g>
<g>
</g>
<g>
</g>
<g>
</g>
<g>
</g>
<g>
</g>
<g>
</g>
</svg>
